{"title":"Rick Ross Ft. Lil Wayne - Thug Cry [Explicit] 1080p [Sbyky]","uid":10162560,"size":77866399,"categoryP":"video","categoryS":"music_videos","magnet":"?xt=urn:btih:5e0f7f453ef8f85469ca454d947a8b753f32043e&amp;dn=Rick+Ross+Ft.+Lil+Wayne+-+Thug+Cry+%5BExplicit%5D+1080p+%5BSbyky%5D&amp;tr=udp%3A%2F%2Ftracker.openbittorrent.com%3A80&amp;tr=udp%3A%2F%2Fopen.demonii.com%3A1337&amp;tr=udp%3A%2F%2Ftracker.coppersurfer.tk%3A6969&amp;tr=udp%3A%2F%2Fexodus.desync.com%3A6969","seeders":12,"leechers":1,"uploader":"Sbyky","files":1,"time":1400319618,"description":"\n\nGeneral\nComplete name                            : Rick Ross Ft. Lil Wayne - Thug Cry [Explicit] 1080p [Sbyky].MP4\nFormat                                   : MPEG-4\nFormat profile                           : Base Media\nCodec ID                                 : isom\nFile size                                : 74.3 MiB\nDuration                                 : 5mn 33s\nOverall bit rate mode                    : Variable\nOverall bit rate                         : 1 870 Kbps\nEncoded date                             : UTC 2014-05-10 00:28:38\nTagged date                              : UTC 2014-05-10 00:28:38\n\nVideo\nID                                       : 1\nFormat                                   : AVC\nFormat/Info                              : Advanced Video Codec\nFormat profile                           : &lt;a class=&quot;__cf_email__&quot; href=&quot;/cdn-cgi/l/email-protection&quot; data-cfemail=&quot;84ccede3ecc4c8b0aab4&quot;&gt;[email&amp;#160;protected]&lt;/a&gt;&lt;script cf-hash='f9e31' type=&quot;text/javascript&quot;&gt;\n/* &lt;![CDATA[ */!function(){try{var t=&quot;currentScript&quot;in document?document.currentScript:function(){for(var t=document.getElementsByTagName(&quot;script&quot;),e=t.length;e--;)if(t[e].getAttribute(&quot;cf-hash&quot;))return t[e]}();if(t&amp;&amp;t.previousSibling){var e,r,n,i,c=t.previousSibling,a=c.getAttribute(&quot;data-cfemail&quot;);if(a){for(e=&quot;&quot;,r=parseInt(a.substr(0,2),16),n=2;a.length-n;n+=2)i=parseInt(a.substr(n,2),16)^r,e+=String.fromCharCode(i);e=document.createTextNode(e),c.parentNode.replaceChild(e,c)}}}catch(u){}}();/* ]]&gt; */&lt;/script&gt;\nFormat settings, CABAC                   : Yes\nFormat settings, ReFrames                : 3 frames\nCodec ID                                 : avc1\nCodec ID/Info                            : Advanced Video Coding\nDuration                                 : 5mn 33s\nBit rate                                 : 1 740 Kbps\nWidth                                    : 1 920 pixels\nHeight                                   : 1 080 pixels\nDisplay aspect ratio                     : 16:9\nFrame rate mode                          : Variable\nFrame rate                               : 23.976 fps\nMinimum frame rate                       : 23.974 fps\nMaximum frame rate                       : 1 500.000 fps\nColor space                              : YUV\nChroma subsampling                       : 4:2:0\nBit depth                                : 8 bits\nScan type                                : Progressive\nBits/(Pixel*Frame)                       : 0.035\nStream size                              : 69.1 MiB (93%)\nEncoded date                             : UTC 2014-05-10 00:28:38\nTagged date                              : UTC 2014-05-10 00:28:38\n\nAudio\nID                                       : 2\nFormat                                   : AAC\nFormat/Info                              : Advanced Audio Codec\nFormat profile                           : LC\nCodec ID                                 : 40\nDuration                                 : 5mn 33s\nBit rate mode                            : Variable\nBit rate                                 : 126 Kbps\nChannel(s)                               : 2 channels\nChannel positions                        : Front: L R\nSampling rate                            : 44.1 KHz\nCompression mode                         : Lossy\nStream size                              : 4.99 MiB (7%)\nEncoded date                             : UTC 2014-05-10 00:28:15\nTagged date                              : UTC 2014-05-10 00:28:15\n\nShared By Sbyky\n","torrent":{"xt":"urn:btih:5e0f7f453ef8f85469ca454d947a8b753f32043e","amp;dn":"Rick+Ross+Ft.+Lil+Wayne+-+Thug+Cry+%5BExplicit%5D+1080p+%5BSbyky%5D","amp;tr":["udp%3A%2F%2Ftracker.openbittorrent.com%3A80","udp%3A%2F%2Fopen.demonii.com%3A1337","udp%3A%2F%2Ftracker.coppersurfer.tk%3A6969","udp%3A%2F%2Fexodus.desync.com%3A6969"],"infoHash":"5e0f7f453ef8f85469ca454d947a8b753f32043e","infoHashBuffer":{"type":"Buffer","data":[94,15,127,69,62,248,248,84,105,202,69,77,148,122,139,117,63,50,4,62]},"announce":[],"urlList":[]}}